<svg id="Capa_1" enable-background="new 0 0 512 512" height="45" viewBox="0 0 512 512" width="45" xmlns="http://www.w3.org/2000/svg"><g><g clip-rule="evenodd" fill-rule="evenodd"><path d="m477.105 397.973h-354.987c-4.933 0-8.986-4.025-8.986-8.957v-236.92c0-4.932 4.054-8.957 8.986-8.957h354.987c4.933 0 8.957 4.025 8.957 8.957v236.92c0 4.931-4.024 8.957-8.957 8.957z" fill="#d8a595"/><path d="m103.919 129.816h391.385c5.046 0 9.213 3.996 9.213 8.844v83.734c0 45.496-175.495 53.065-204.919 53.065-29.396 0-204.891-7.568-204.891-53.065v-83.734c0-4.848 4.139-8.844 9.212-8.844z" fill="#d09080"/><path d="m480.252 129.816h15.052c5.046 0 9.213 3.996 9.213 8.844v83.734c0 45.496-175.495 53.065-204.919 53.065-29.396 0-204.891-7.568-204.891-53.065v-24.264c0 45.496 175.494 53.064 204.891 53.064 29.424 0 180.654-7.568 180.654-53.064z" fill="#be694f"/><path d="m263.994 240.48h71.235c8.107 0 14.74 6.633 14.74 14.74v40.506c0 8.107-6.633 14.74-14.74 14.74h-71.235c-8.107 0-14.74-6.633-14.74-14.74v-40.506c0-8.107 6.633-14.74 14.74-14.74z" fill="#ffe5a0"/><path d="m258.778 60.311h81.667c9.325 0 16.979 7.625 16.979 16.951 0 9.353-7.654 16.978-16.979 16.978h-81.667c-9.354 0-16.979-7.625-16.979-16.978 0-9.326 7.625-16.951 16.979-16.951z" fill="#ffe5a0"/><path d="m15.987 214.912h157.438c4.677 0 8.476 3.826 8.476 8.475v219.828c0 4.648-3.799 8.475-8.476 8.475h-157.438c-4.677 0-8.476-3.826-8.476-8.475v-219.828c.001-4.649 3.8-8.475 8.476-8.475z" fill="#ecf4ff"/><path d="m59.387 197.734c2.58 0 4.904.566 5.5-2.949 1.389-8.078 8.475-14.258 16.922-14.258h25.796c8.476 0 15.392 6.18 16.923 14.258.709 3.771 2.466 2.949 5.5 2.949 9.468 0 17.178 7.709 17.178 17.178 0 9.439-7.71 17.178-17.178 17.178h-70.641c-9.468 0-17.207-7.738-17.207-17.178 0-9.469 7.739-17.178 17.207-17.178z" fill="#477b9e"/><path d="m461.797 255.221v133.795c0 4.932-4.025 8.957-8.957 8.957h24.266c4.933 0 8.957-4.025 8.957-8.957v-143.66c-6.718 3.712-14.996 7.001-24.266 9.865z" fill="#d09080"/><path d="m335.229 240.48h-24.265c8.107 0 14.74 6.633 14.74 14.74v19.445 21.061c0 8.107-6.633 14.74-14.74 14.74h24.265c8.107 0 14.74-6.633 14.74-14.74v-22.562-2.154-15.789c.001-8.108-6.632-14.741-14.74-14.741z" fill="#f2ce7e"/><path d="m157.637 397.973v45.242c0 4.648-3.827 8.475-8.476 8.475h24.265c4.677 0 8.476-3.826 8.476-8.475v-45.242-132.66-41.926c0-4.648-3.799-8.475-8.476-8.475h-24.265c4.648 0 8.476 3.826 8.476 8.475v37.191z" fill="#ddeafb"/></g><path d="m153.555 207.4h19.871c4.394 0 8.391 1.814 11.282 4.705s4.705 6.889 4.705 11.281v35.547c8.277 1.275 16.753 2.381 25.173 3.373 9.298 1.078 18.453 1.957 27.156 2.693v-9.779c0-6.152 2.494-11.707 6.52-15.732 4.053-4.025 9.609-6.52 15.732-6.52h71.235c6.123 0 11.679 2.494 15.704 6.52 4.024 4.025 6.52 9.58 6.52 15.732v9.807c34.272-2.861 75.714-8.248 105.194-17.941 9.752-3.176 34.357-11.963 34.357-24.691v-83.735c0-.852-.936-1.332-1.701-1.332-130.48 0-260.932 0-391.385 0-.765 0-1.7.48-1.7 1.332v34.385h5.386c6.774 0 12.954 2.777 17.433 7.227 2.75 2.779 4.877 6.18 6.096 9.979 6.35.283 12.105 2.977 16.327 7.229 2.778 2.749 4.876 6.149 6.095 9.92zm55.984-85.068v-20.295c0-8.902 3.629-16.951 9.469-22.791 4.365-4.365 10.006-7.512 16.271-8.816 1.162-3.996 3.316-7.568 6.207-10.459 4.422-4.422 10.545-7.172 17.292-7.172h81.667c6.746 0 12.869 2.75 17.291 7.172 2.863 2.891 5.046 6.463 6.208 10.459 6.265 1.305 11.877 4.451 16.242 8.816 5.869 5.84 9.497 13.889 9.497 22.791v20.295h105.62c4.507 0 8.645 1.785 11.679 4.705 3.09 2.977 5.018 7.088 5.018 11.623v83.734c0 10.971-6.917 19.9-18.425 27.156v139.465c0 4.535-1.844 8.647-4.819 11.623-3.005 2.975-7.115 4.846-11.65 4.846h-287.693v37.73c0 4.393-1.814 8.391-4.705 11.281-2.892 2.891-6.889 4.705-11.282 4.705h-157.439c-4.394 0-8.391-1.815-11.281-4.705-2.92-2.89-4.706-6.888-4.706-11.28v-92.92c0-4.139 3.374-7.512 7.512-7.512 4.139 0 7.483 3.373 7.483 7.512v92.92c0 .51.454.963.992.963h157.438c.511 0 .992-.453.992-.963v-45.242-174.586c0-.51-.482-.963-.992-.963h-19.871c-1.219 3.77-3.316 7.172-6.095 9.922-4.45 4.479-10.629 7.256-17.433 7.256h-70.639c-6.803 0-12.982-2.777-17.462-7.256-2.75-2.75-4.848-6.152-6.066-9.922h-19.872c-.538 0-.992.453-.992.963v92.92c0 4.139-3.345 7.512-7.483 7.512s-7.512-3.373-7.512-7.512v-92.92c0-4.393 1.786-8.391 4.706-11.281 2.891-2.891 6.888-4.705 11.281-4.705h19.871c1.219-3.771 3.316-7.172 6.066-9.922 4.253-4.252 10.007-6.945 16.356-7.229 1.219-3.799 3.346-7.199 6.095-9.979 4.479-4.449 10.658-7.227 17.433-7.227h5.387v-34.384c0-4.535 1.927-8.646 5.045-11.623 3.005-2.92 7.172-4.705 11.679-4.705zm26.307-36.482c-2.353.879-4.479 2.24-6.236 3.998-3.118 3.117-5.074 7.455-5.074 12.189v20.295h150.124v-20.295c0-4.734-1.928-9.072-5.074-12.189-1.729-1.758-3.854-3.119-6.236-3.998-1.219 3.289-3.175 6.266-5.612 8.703-4.422 4.451-10.545 7.199-17.291 7.199h-81.667c-6.747 0-12.87-2.748-17.292-7.199-2.468-2.438-4.395-5.414-5.642-8.703zm104.599-18.057h-81.667c-2.608 0-4.961 1.078-6.69 2.807-1.729 1.701-2.777 4.082-2.777 6.662 0 2.523.992 4.904 2.777 6.689 1.729 1.729 4.082 2.807 6.69 2.807h81.667c2.607 0 4.96-1.078 6.689-2.807 1.701-1.729 2.778-4.082 2.778-6.689 0-2.58-1.077-4.961-2.778-6.662-1.729-1.729-4.081-2.807-6.689-2.807zm-98.703 212.23c-9.185-.736-18.936-1.701-28.857-2.834-7.711-.908-15.591-1.928-23.472-3.119v116.391h287.692c.794 0 1.474-.652 1.474-1.445v-131.84c-3.571 1.475-7.342 2.863-11.311 4.168-31.124 10.205-74.438 15.816-109.815 18.736v15.646c0 6.123-2.495 11.709-6.52 15.732-4.025 4.025-9.581 6.519-15.704 6.519h-18.624c-4.139 0-7.512-3.344-7.512-7.512 0-4.139 3.373-7.482 7.512-7.482h18.624c1.984 0 3.799-.822 5.103-2.127 1.304-1.332 2.126-3.146 2.126-5.131v-40.506c0-1.984-.822-3.799-2.126-5.131-1.304-1.305-3.118-2.127-5.103-2.127h-71.235c-1.984 0-3.799.822-5.103 2.127-1.333 1.332-2.154 3.146-2.154 5.131v40.506c0 1.984.821 3.799 2.154 5.131 1.304 1.305 3.118 2.127 5.103 2.127h18.623c4.139 0 7.512 3.344 7.512 7.482 0 4.168-3.373 7.512-7.512 7.512h-18.623c-6.123 0-11.68-2.494-15.732-6.519-4.025-4.024-6.52-9.609-6.52-15.732zm-201.773 87.506c-4.139 0-7.512-3.346-7.512-7.484 0-4.166 3.373-7.512 7.512-7.512h109.476c4.139 0 7.512 3.346 7.512 7.512 0 4.139-3.373 7.484-7.512 7.484zm22.99 54.313c-4.139 0-7.512-3.346-7.512-7.484 0-4.139 3.373-7.512 7.512-7.512h63.496c4.14 0 7.513 3.373 7.513 7.512s-3.373 7.484-7.513 7.484zm-22.99-27.157c-4.139 0-7.512-3.346-7.512-7.484 0-4.139 3.373-7.512 7.512-7.512h109.476c4.139 0 7.512 3.373 7.512 7.512s-3.373 7.484-7.512 7.484zm42.775-72c.992 3.996-1.445 8.078-5.471 9.07-2.721.68-5.527 1.049-8.334 1.049-10.176 0-19.389-4.451-25.993-11.65-6.464-7.029-10.489-16.695-10.489-27.326 0-10.629 4.025-20.268 10.489-27.297 6.604-7.201 15.817-11.65 25.993-11.65 2.807 0 5.613.34 8.334 1.049 4.025.992 6.463 5.045 5.471 9.07-1.02 3.996-5.073 6.463-9.099 5.443-1.531-.369-3.146-.568-4.706-.568-5.839 0-11.111 2.58-14.995 6.775-3.997 4.365-6.491 10.432-6.491 17.178s2.494 12.842 6.491 17.178c3.884 4.195 9.156 6.803 14.995 6.803 5.075 0 11.821-3.034 13.805 4.876zm13.012-55.531c-1.475-3.855.481-8.164 4.309-9.639 3.854-1.473 8.164.455 9.638 4.309l16.384 42.662 16.386-42.662c1.474-3.853 5.782-5.781 9.638-4.309 3.854 1.475 5.782 5.783 4.309 9.639l-23.357 60.803c-.737 1.928-2.239 3.516-4.309 4.309-3.856 1.475-8.165-.453-9.639-4.309zm-31.125-61.937h-5.244c-2.664 0-5.074 1.105-6.831 2.863-1.758 1.758-2.863 4.168-2.863 6.832s1.105 5.074 2.863 6.832c1.757 1.756 4.167 2.861 6.831 2.861h70.641c2.665 0 5.074-1.105 6.831-2.861 1.758-1.758 2.863-4.168 2.863-6.832s-1.105-5.074-2.863-6.832c-1.757-1.758-4.166-2.863-6.831-2.863h-5.245c-4.139 0-7.512-3.344-7.512-7.482 0-2.666-1.077-5.074-2.835-6.832-1.757-1.785-4.195-2.863-6.831-2.863h-25.796c-2.636 0-5.073 1.078-6.831 2.863-1.758 1.758-2.835 4.166-2.835 6.832 0 4.138-3.373 7.482-7.512 7.482z"/></g></svg>